<svg xmlns="http://www.w3.org/2000/svg" width="1024" height="1024" viewBox="0 0 100 100">
  <defs>
    <linearGradient id="base" x1="0.12" y1="0" x2="0.62" y2="1">
      <stop offset="0%" stop-color="#4f46e5"></stop>
      <stop offset="48%" stop-color="#6366f1"></stop>
      <stop offset="100%" stop-color="#8b5cf6"></stop>
    </linearGradient>
    <radialGradient id="spec" cx="50%" cy="-12%" r="62%">
      <stop offset="0%" stop-color="#ffffff" stop-opacity="0.60"></stop>
      <stop offset="60%" stop-color="#ffffff" stop-opacity="0"></stop>
    </radialGradient>
    <radialGradient id="caustic" cx="50%" cy="104%" r="48%">
      <stop offset="0%" stop-color="#c8aeff" stop-opacity="0.55"></stop>
      <stop offset="72%" stop-color="#c8aeff" stop-opacity="0"></stop>
    </radialGradient>
    <linearGradient id="streak" x1="0" y1="0" x2="1" y2="1">
      <stop offset="0%" stop-color="#ffffff" stop-opacity="0.34"></stop>
      <stop offset="30%" stop-color="#ffffff" stop-opacity="0"></stop>
    </linearGradient>
    <linearGradient id="rim" x1="0" y1="0" x2="0" y2="1">
      <stop offset="0%" stop-color="#ffffff" stop-opacity="0.55"></stop>
      <stop offset="5%" stop-color="#ffffff" stop-opacity="0"></stop>
      <stop offset="80%" stop-color="#180a3a" stop-opacity="0"></stop>
      <stop offset="100%" stop-color="#180a3a" stop-opacity="0.42"></stop>
    </linearGradient>
    <radialGradient id="cres" cx="50%" cy="0%" r="100%">
      <stop offset="0%" stop-color="#ffffff" stop-opacity="0.6"></stop>
      <stop offset="72%" stop-color="#ffffff" stop-opacity="0"></stop>
    </radialGradient>
    <radialGradient id="glow" cx="50%" cy="50%" r="50%">
      <stop offset="0%" stop-color="#ffffff" stop-opacity="0.95"></stop>
      <stop offset="38%" stop-color="#ffffff" stop-opacity="0.32"></stop>
      <stop offset="100%" stop-color="#ffffff" stop-opacity="0"></stop>
    </radialGradient>
    <linearGradient id="comet" x1="0" y1="0" x2="1" y2="0.7">
      <stop offset="0%" stop-color="#ffffff" stop-opacity="1"></stop>
      <stop offset="55%" stop-color="#ffffff" stop-opacity="0.45"></stop>
      <stop offset="100%" stop-color="#ffffff" stop-opacity="0.03"></stop>
    </linearGradient>
    <filter id="blurHi" x="-20%" y="-20%" width="140%" height="140%">
      <feGaussianBlur stdDeviation="1.1"></feGaussianBlur>
    </filter>
    <clipPath id="squircle"><rect width="100" height="100" rx="24"></rect></clipPath>
  </defs>

  <g clip-path="url(#squircle)">
    <rect width="100" height="100" fill="url(#base)"></rect>
    <rect width="100" height="100" fill="url(#caustic)"></rect>
    <rect width="100" height="100" fill="url(#spec)"></rect>
    <rect width="100" height="100" fill="url(#streak)"></rect>
    <rect width="100" height="100" fill="url(#rim)"></rect>
    <ellipse cx="50" cy="13" rx="34" ry="14" fill="url(#cres)" filter="url(#blurHi)"></ellipse>

    
    <circle cx="50" cy="49" r="31" fill="url(#glow)" opacity="0.36"></circle>
    <circle cx="50" cy="50" r="37.5" fill="none" stroke="#ffffff" stroke-width="1.7" stroke-linecap="round" stroke-dasharray="0.1 5.1" opacity="0.52"></circle>
    <g transform="translate(3,0)" fill="none" stroke="#ffffff" stroke-width="9.4" stroke-linecap="round" stroke-linejoin="round">
      <path d="M41 30 L41 70"></path>
      <path d="M41 30 C57 30 64 35.5 64 42.5 C64 49.5 57 55 41 55"></path>
    </g>
    <circle cx="50" cy="11" r="5.2" fill="url(#glow)"></circle>
    <circle cx="50" cy="8.6" r="2.5" fill="#ffffff"></circle>
    <path d="M45.7 15.2 C45.7 10.9 54.3 10.9 54.3 15.2 Z" fill="#ffffff"></path>
    <circle cx="80" cy="18.5" r="7" fill="url(#glow)"></circle>
    <rect x="74" y="17.5" width="2.7" height="6" rx="1" fill="#ffffff"></rect>
    <rect x="78.4" y="14.5" width="2.7" height="9" rx="1" fill="#ffffff"></rect>
    <rect x="82.8" y="11.5" width="2.7" height="12" rx="1" fill="#ffffff"></rect>
    <circle cx="17" cy="80" r="9" fill="url(#glow)" opacity="0.85"></circle>
    <rect x="10.5" y="75" width="13" height="11.5" rx="2" fill="none" stroke="#ffffff" stroke-width="1.6"></rect>
    <line x1="10.5" y1="78.7" x2="23.5" y2="78.7" stroke="#ffffff" stroke-width="1.6"></line>
    <line x1="14" y1="73.2" x2="14" y2="76.6" stroke="#ffffff" stroke-width="1.6" stroke-linecap="round"></line>
    <line x1="20" y1="73.2" x2="20" y2="76.6" stroke="#ffffff" stroke-width="1.6" stroke-linecap="round"></line>
    <circle cx="14" cy="81.4" r="0.85" fill="#ffffff"></circle>
    <circle cx="17" cy="81.4" r="0.85" fill="#ffffff"></circle>
    <circle cx="20" cy="81.4" r="0.85" fill="#ffffff"></circle>
    <circle cx="14" cy="84.2" r="0.85" fill="#ffffff"></circle>
    <circle cx="17" cy="84.2" r="0.85" fill="#ffffff"></circle>
    <line x1="84" y1="53" x2="78" y2="49.5" stroke="#ffffff" stroke-width="1.5" stroke-linecap="round"></line>
    <circle cx="78" cy="49.5" r="1.3" fill="#ffffff"></circle>
    <circle cx="86" cy="55" r="3" fill="none" stroke="#ffffff" stroke-width="1.5"></circle>
    <circle cx="86" cy="55" r="0.9" fill="#ffffff"></circle>
    <line x1="71" y1="81" x2="66" y2="77" stroke="#ffffff" stroke-width="1.5" stroke-linecap="round"></line>
    <circle cx="66" cy="77" r="1.3" fill="#ffffff"></circle>
    <circle cx="73" cy="83.5" r="3" fill="none" stroke="#ffffff" stroke-width="1.5"></circle>
    <circle cx="73" cy="83.5" r="0.9" fill="#ffffff"></circle>
    <line x1="24" y1="31" x2="31" y2="36" stroke="#ffffff" stroke-width="1.5" stroke-linecap="round"></line>
    <circle cx="22.5" cy="29.7" r="2.1" fill="#ffffff"></circle>
    <circle cx="31.5" cy="36.3" r="1.3" fill="#ffffff"></circle>
    <circle cx="12.5" cy="51" r="4.4" fill="url(#glow)"></circle>
    <circle cx="12.5" cy="51" r="2.2" fill="#ffffff"></circle>
    <circle cx="52" cy="88.5" r="1.5" fill="#ffffff"></circle>
    <circle cx="44" cy="87.6" r="1.1" fill="#ffffff" opacity="0.85"></circle>
    <path d="M64 7.5 C64.2 9.3 64.9 10 66.7 10.2 C64.9 10.4 64.2 11.1 64 12.9 C63.8 11.1 63.1 10.4 61.3 10.2 C63.1 10 63.8 9.3 64 7.5 Z" fill="#ffffff"></path>
    <path d="M92.5 31 C92.65 32.4 93.2 32.95 94.6 33.1 C93.2 33.25 92.65 33.8 92.5 35.2 C92.35 33.8 91.8 33.25 90.4 33.1 C91.8 32.95 92.35 32.4 92.5 31 Z" fill="#ffffff"></path>
    <path d="M38 91.5 C38.13 92.7 38.6 93.17 39.8 93.3 C38.6 93.43 38.13 93.9 38 95.1 C37.87 93.9 37.4 93.43 36.2 93.3 C37.4 93.17 37.87 92.7 38 91.5 Z" fill="#ffffff"></path>
  </g>

  <rect x="0.6" y="0.6" width="98.8" height="98.8" rx="23.4" fill="none" stroke="#ffffff" stroke-width="1.1" opacity="0.20"></rect>
</svg>